<svg xmlns="http://www.w3.org/2000/svg" version="1.1" width="1024" height="576">
<rect x="0" y="0" width="1024" height="576" fill="#747672" />
<g transform="scale(4.000000) translate(0.5 0.5)">
<polygon fill="#c1dfed" fill-opacity="0.501961" points="-14,159 160,127 168,38" />
<polygon fill="#362914" fill-opacity="0.501961" points="155,149 245,-16 271,142" />
<polygon fill="#adb1b8" fill-opacity="0.501961" points="116,159 77,38 28,120" />
<polygon fill="#45433c" fill-opacity="0.501961" points="161,5 237,8 179,102" />
<polygon fill="#0d0000" fill-opacity="0.501961" points="225,99 223,159 271,105" />
<polygon fill="#000000" fill-opacity="0.501961" points="205,134 168,159 174,119" />
<polygon fill="#c1ffff" fill-opacity="0.501961" points="158,112 127,111 170,51" />
<polygon fill="#827b6b" fill-opacity="0.501961" points="224,52 271,85 128,137" />
<polygon fill="#7e8584" fill-opacity="0.501961" points="12,84 148,40 137,106" />
<polygon fill="#6b5648" fill-opacity="0.501961" points="39,32 -16,3 20,159" />
<polygon fill="#9af0ff" fill-opacity="0.501961" points="167,45 163,92 139,43" />
<polygon fill="#ffffff" fill-opacity="0.501961" points="68,107 96,116 126,109" />
<polygon fill="#786e6a" fill-opacity="0.501961" points="157,137 93,114 184,112" />
<polygon fill="#fcfcde" fill-opacity="0.501961" points="254,12 232,6 271,6" />
<polygon fill="#ffffff" fill-opacity="0.501961" points="171,95 173,118 168,107" />
<polygon fill="#ffffff" fill-opacity="0.501961" points="188,2 150,-1 149,-12" />
<polygon fill="#949199" fill-opacity="0.501961" points="-16,1 55,27 119,-10" />
<polygon fill="#000000" fill-opacity="0.501961" points="169,122 180,159 201,122" />
<polygon fill="#978c84" fill-opacity="0.501961" points="73,98 25,61 24,159" />
<polygon fill="#aad7e1" fill-opacity="0.501961" points="71,108 88,109 71,60" />
<polygon fill="#5d666a" fill-opacity="0.501961" points="212,46 139,-12 100,42" />
<polygon fill="#000000" fill-opacity="0.501961" points="271,107 222,99 236,122" />
<polygon fill="#644111" fill-opacity="0.501961" points="222,118 271,126 235,159" />
<polygon fill="#54534d" fill-opacity="0.501961" points="182,95 192,14 271,8" />
<polygon fill="#6f7171" fill-opacity="0.501961" points="226,68 214,159 198,132" />
<polygon fill="#615443" fill-opacity="0.501961" points="30,141 5,105 4,153" />
<polygon fill="#440e00" fill-opacity="0.501961" points="191,96 177,83 185,70" />
<polygon fill="#64a2bb" fill-opacity="0.501961" points="129,40 157,55 142,107" />
<polygon fill="#deffff" fill-opacity="0.501961" points="162,111 127,111 161,93" />
<polygon fill="#757676" fill-opacity="0.501961" points="144,80 13,65 129,41" />
<polygon fill="#000000" fill-opacity="0.501961" points="157,155 121,139 105,147" />
<polygon fill="#5b5950" fill-opacity="0.501961" points="168,85 167,35 234,47" />
<polygon fill="#43381e" fill-opacity="0.501961" points="184,-1 267,8 247,-16" />
<polygon fill="#d6d4bc" fill-opacity="0.501961" points="188,-1 193,6 212,4" />
<polygon fill="#fdfce2" fill-opacity="0.501961" points="223,6 240,8 228,3" />
<polygon fill="#8e908d" fill-opacity="0.501961" points="134,106 66,29 93,108" />
<polygon fill="#948d8e" fill-opacity="0.501961" points="191,121 176,119 175,87" />
<polygon fill="#bcf6ff" fill-opacity="0.501961" points="165,49 165,87 146,110" />
<polygon fill="#514640" fill-opacity="0.501961" points="30,29 10,64 5,20" />
<polygon fill="#a7a7b3" fill-opacity="0.501961" points="58,113 100,159 130,115" />
<polygon fill="#6d6c66" fill-opacity="0.501961" points="167,152 139,112 173,113" />
<polygon fill="#4d4938" fill-opacity="0.501961" points="269,2 228,98 230,26" />
<polygon fill="#000000" fill-opacity="0.501961" points="196,156 198,127 173,121" />
<polygon fill="#463b25" fill-opacity="0.501961" points="183,-16 153,-3 237,4" />
<polygon fill="#666a67" fill-opacity="0.501961" points="166,43 140,0 222,6" />
<polygon fill="#6c6b63" fill-opacity="0.501961" points="229,84 224,21 176,112" />
<polygon fill="#8dc0d4" fill-opacity="0.501961" points="150,106 158,50 127,108" />
<polygon fill="#aeb4ac" fill-opacity="0.501961" points="102,76 142,82 98,87" />
<polygon fill="#ffffff" fill-opacity="0.501961" points="111,111 143,112 135,105" />
<polygon fill="#9a999b" fill-opacity="0.501961" points="152,130 88,114 120,140" />
</g>
</svg>