<svg xmlns="http://www.w3.org/2000/svg" version="1.1" width="1024" height="576">
<rect x="0" y="0" width="1024" height="576" fill="#526a87" />
<g transform="scale(4.000000) translate(0.5 0.5)">
<polygon fill="#0094ff" fill-opacity="0.501961" points="46,45 166,18 165,127" />
<polygon fill="#61452c" fill-opacity="0.501961" points="251,-16 132,145 271,153" />
<polygon fill="#b8bcbd" fill-opacity="0.501961" points="63,32 17,120 102,159" />
<polygon fill="#000035" fill-opacity="0.501961" points="117,78 119,159 91,87" />
<polygon fill="#080000" fill-opacity="0.501961" points="271,101 223,102 240,159" />
<polygon fill="#008fff" fill-opacity="0.501961" points="157,116 171,43 62,25" />
<polygon fill="#876f6d" fill-opacity="0.501961" points="4,159 102,-16 -16,-2" />
<polygon fill="#000000" fill-opacity="0.501961" points="27,120 40,144 -16,146" />
<polygon fill="#00acff" fill-opacity="0.501961" points="71,34 96,37 72,119" />
<polygon fill="#0097ff" fill-opacity="0.501961" points="116,117 168,104 116,28" />
<polygon fill="#343965" fill-opacity="0.501961" points="99,35 269,55 217,4" />
<polygon fill="#070500" fill-opacity="0.501961" points="98,159 141,140 96,115" />
<polygon fill="#a8bdcf" fill-opacity="0.501961" points="40,142 93,78 96,143" />
<polygon fill="#767986" fill-opacity="0.501961" points="228,51 150,117 223,150" />
<polygon fill="#828ba9" fill-opacity="0.501961" points="67,34 131,0 -16,-1" />
<polygon fill="#855257" fill-opacity="0.501961" points="111,68 88,98 96,54" />
<polygon fill="#ddc89d" fill-opacity="0.501961" points="248,9 152,-1 183,-16" />
<polygon fill="#4e4049" fill-opacity="0.501961" points="167,48 168,95 219,24" />
<polygon fill="#352b1a" fill-opacity="0.501961" points="245,-16 178,-3 271,9" />
<polygon fill="#6b6151" fill-opacity="0.501961" points="124,159 123,112 208,114" />
<polygon fill="#0499ff" fill-opacity="0.501961" points="97,46 74,117 72,29" />
<polygon fill="#000000" fill-opacity="0.501961" points="228,98 271,111 225,122" />
<polygon fill="#664014" fill-opacity="0.501961" points="221,159 271,135 225,114" />
<polygon fill="#0094ff" fill-opacity="0.501961" points="122,111 102,25 168,110" />
<polygon fill="#00056f" fill-opacity="0.501961" points="98,110 104,57 122,109" />
<polygon fill="#020000" fill-opacity="0.501961" points="58,159 27,128 -2,142" />
<polygon fill="#69615e" fill-opacity="0.501961" points="-5,141 30,122 16,5" />
<polygon fill="#79737c" fill-opacity="0.501961" points="70,91 -16,82 69,38" />
<polygon fill="#3666be" fill-opacity="0.501961" points="124,15 198,39 59,33" />
<polygon fill="#fffff0" fill-opacity="0.501961" points="242,5 259,9 243,10" />
<polygon fill="#38b2ff" fill-opacity="0.501961" points="70,111 92,115 72,80" />
<polygon fill="#a4a6aa" fill-opacity="0.501961" points="45,113 105,112 38,159" />
<polygon fill="#9a8683" fill-opacity="0.501961" points="100,69 82,106 83,81" />
<polygon fill="#454027" fill-opacity="0.501961" points="226,60 271,59 233,27" />
<polygon fill="#0086ff" fill-opacity="0.501961" points="166,93 76,36 167,44" />
<polygon fill="#4d4953" fill-opacity="0.501961" points="38,29 2,21 10,59" />
<polygon fill="#9f978d" fill-opacity="0.501961" points="71,114 32,72 26,127" />
<polygon fill="#ffffff" fill-opacity="0.501961" points="189,2 150,-13 138,-2" />
<polygon fill="#48495e" fill-opacity="0.501961" points="271,52 268,11 159,1" />
<polygon fill="#6f7ad1" fill-opacity="0.501961" points="90,109 101,116 117,113" />
<polygon fill="#776b42" fill-opacity="0.501961" points="226,93 246,49 271,108" />
<polygon fill="#00031b" fill-opacity="0.501961" points="127,155 97,115 116,119" />
<polygon fill="#62688d" fill-opacity="0.501961" points="227,44 221,145 203,58" />
<polygon fill="#30291d" fill-opacity="0.501961" points="227,3 151,-3 212,-16" />
<polygon fill="#5e6c9a" fill-opacity="0.501961" points="49,33 115,-16 139,25" />
<polygon fill="#000f63" fill-opacity="0.501961" points="93,98 130,112 96,87" />
<polygon fill="#7d7d87" fill-opacity="0.501961" points="218,159 201,119 227,80" />
<polygon fill="#079eff" fill-opacity="0.501961" points="128,69 104,40 103,64" />
<polygon fill="#63625f" fill-opacity="0.501961" points="205,134 142,149 200,53" />
<polygon fill="#6d6f87" fill-opacity="0.501961" points="32,53 70,73 72,26" />
</g>
</svg>