<svg xmlns="http://www.w3.org/2000/svg" version="1.1" width="1024" height="576">
<rect x="0" y="0" width="1024" height="576" fill="#51667b" />
<g transform="scale(4.000000) translate(0.5 0.5)">
<polygon fill="#24bdff" fill-opacity="0.501961" points="71,16 73,159 182,67" />
<polygon fill="#3a1c00" fill-opacity="0.501961" points="271,141 246,-16 135,158" />
<polygon fill="#c9a48d" fill-opacity="0.501961" points="18,101 180,124 51,159" />
<polygon fill="#199dff" fill-opacity="0.501961" points="168,110 139,16 57,114" />
<polygon fill="#c5ffff" fill-opacity="0.501961" points="82,65 120,104 125,63" />
<polygon fill="#2e2022" fill-opacity="0.501961" points="224,-16 189,159 164,65" />
<polygon fill="#57361f" fill-opacity="0.501961" points="13,9 37,156 -4,159" />
<polygon fill="#0071ff" fill-opacity="0.501961" points="171,44 72,34 70,74" />
<polygon fill="#7f7e85" fill-opacity="0.501961" points="217,159 230,60 193,59" />
<polygon fill="#020000" fill-opacity="0.501961" points="222,97 238,159 271,106" />
<polygon fill="#87736b" fill-opacity="0.501961" points="75,-16 -16,91 68,116" />
<polygon fill="#0072ff" fill-opacity="0.501961" points="146,38 114,110 165,113" />
<polygon fill="#000000" fill-opacity="0.501961" points="207,147 175,159 188,73" />
<polygon fill="#000000" fill-opacity="0.501961" points="42,159 -16,140 28,128" />
<polygon fill="#9cdceb" fill-opacity="0.501961" points="88,57 87,103 125,59" />
<polygon fill="#73728c" fill-opacity="0.501961" points="126,-16 -16,10 149,42" />
<polygon fill="#b8aa87" fill-opacity="0.501961" points="257,11 194,-15 152,-1" />
<polygon fill="#5f5554" fill-opacity="0.501961" points="61,34 -3,8 -3,144" />
<polygon fill="#454453" fill-opacity="0.501961" points="198,91 141,-1 255,10" />
<polygon fill="#006fff" fill-opacity="0.501961" points="149,111 111,41 168,68" />
<polygon fill="#817262" fill-opacity="0.501961" points="87,159 179,154 172,105" />
<polygon fill="#988b84" fill-opacity="0.501961" points="220,158 202,127 227,89" />
<polygon fill="#0f0200" fill-opacity="0.501961" points="242,5 170,-2 210,-16" />
<polygon fill="#17a3ff" fill-opacity="0.501961" points="72,63 70,111 141,109" />
<polygon fill="#5d4f45" fill-opacity="0.501961" points="170,116 194,31 159,87" />
<polygon fill="#959793" fill-opacity="0.501961" points="125,159 38,159 31,67" />
<polygon fill="#3c5993" fill-opacity="0.501961" points="165,12 179,42 56,33" />
<polygon fill="#0077ff" fill-opacity="0.501961" points="71,64 71,34 155,41" />
<polygon fill="#c1d9b1" fill-opacity="0.501961" points="150,55 160,48 153,66" />
<polygon fill="#d3d4b4" fill-opacity="0.501961" points="248,4 263,12 229,6" />
<polygon fill="#007dfd" fill-opacity="0.501961" points="169,46 116,108 159,104" />
<polygon fill="#979291" fill-opacity="0.501961" points="14,119 84,148 161,111" />
<polygon fill="#8e8580" fill-opacity="0.501961" points="-16,-5 36,26 78,-16" />
<polygon fill="#effffa" fill-opacity="0.501961" points="122,69 99,62 112,76" />
<polygon fill="#000000" fill-opacity="0.501961" points="225,100 271,107 229,123" />
<polygon fill="#6cc7ef" fill-opacity="0.501961" points="119,71 81,95 108,97" />
<polygon fill="#000c85" fill-opacity="0.501961" points="180,127 174,112 182,91" />
<polygon fill="#48422a" fill-opacity="0.501961" points="257,103 223,72 256,-16" />
<polygon fill="#010000" fill-opacity="0.501961" points="206,106 198,151 172,150" />
<polygon fill="#000000" fill-opacity="0.501961" points="-16,142 35,133 21,159" />
<polygon fill="#4b2c07" fill-opacity="0.501961" points="271,134 221,159 227,118" />
<polygon fill="#0089ff" fill-opacity="0.501961" points="71,71 87,51 83,111" />
<polygon fill="#ffffff" fill-opacity="0.501961" points="176,1 178,-15 143,-2" />
<polygon fill="#998573" fill-opacity="0.501961" points="206,159 238,159 205,117" />
<polygon fill="#4a494b" fill-opacity="0.501961" points="164,85 172,30 240,60" />
<polygon fill="#437eaa" fill-opacity="0.501961" points="148,44 168,67 162,46" />
<polygon fill="#696463" fill-opacity="0.501961" points="71,27 -16,112 8,137" />
<polygon fill="#5f5737" fill-opacity="0.501961" points="219,102 271,93 242,57" />
<polygon fill="#1f1300" fill-opacity="0.501961" points="266,0 242,5 259,6" />
<polygon fill="#6080b1" fill-opacity="0.501961" points="84,51 88,61 122,60" />
</g>
</svg>