<svg xmlns="http://www.w3.org/2000/svg" version="1.1" width="1024" height="576">
<rect x="0" y="0" width="1024" height="576" fill="#5c5c5a" />
<g transform="scale(4.000000) translate(0.5 0.5)">
<polygon fill="#c7eefa" fill-opacity="0.501961" points="183,78 70,18 71,159" />
<polygon fill="#1b0600" fill-opacity="0.501961" points="271,142 246,-16 135,159" />
<polygon fill="#221a15" fill-opacity="0.501961" points="166,8 167,106 231,6" />
<polygon fill="#acd1d5" fill-opacity="0.501961" points="169,111 57,112 155,27" />
<polygon fill="#030000" fill-opacity="0.501961" points="57,138 11,159 5,102" />
<polygon fill="#483532" fill-opacity="0.501961" points="89,21 -5,15 -3,159" />
<polygon fill="#7e6466" fill-opacity="0.501961" points="61,110 49,159 215,120" />
<polygon fill="#020000" fill-opacity="0.501961" points="269,159 271,67 173,159" />
<polygon fill="#735c4c" fill-opacity="0.501961" points="158,146 166,83 227,96" />
<polygon fill="#93b8bd" fill-opacity="0.501961" points="67,102 102,30 173,53" />
<polygon fill="#505858" fill-opacity="0.501961" points="220,-16 167,43 74,33" />
<polygon fill="#000000" fill-opacity="0.501961" points="23,126 53,133 13,159" />
<polygon fill="#000000" fill-opacity="0.501961" points="193,81 211,91 213,65" />
<polygon fill="#69584a" fill-opacity="0.501961" points="224,142 227,49 212,96" />
<polygon fill="#120100" fill-opacity="0.501961" points="179,-1 225,-16 271,7" />
<polygon fill="#dbdec4" fill-opacity="0.501961" points="251,5 245,10 233,6" />
<polygon fill="#ffffff" fill-opacity="0.501961" points="185,1 120,-3 136,-16" />
<polygon fill="#8eafb4" fill-opacity="0.501961" points="67,33 164,112 167,45" />
<polygon fill="#3a2b27" fill-opacity="0.501961" points="10,113 33,27 6,20" />
<polygon fill="#797075" fill-opacity="0.501961" points="23,123 120,146 38,82" />
<polygon fill="#39322e" fill-opacity="0.501961" points="259,8 167,46 168,123" />
<polygon fill="#60696d" fill-opacity="0.501961" points="166,44 95,7 21,24" />
<polygon fill="#272015" fill-opacity="0.501961" points="248,114 227,40 271,-5" />
<polygon fill="#000000" fill-opacity="0.501961" points="268,122 267,99 200,117" />
<polygon fill="#937a72" fill-opacity="0.501961" points="194,89 214,99 198,113" />
<polygon fill="#000000" fill-opacity="0.501961" points="221,129 192,122 203,159" />
<polygon fill="#645855" fill-opacity="0.501961" points="20,102 69,113 70,29" />
<polygon fill="#b3cbcf" fill-opacity="0.501961" points="164,108 72,62 73,114" />
<polygon fill="#cbc3b5" fill-opacity="0.501961" points="180,3 201,3 173,-5" />
<polygon fill="#7b6968" fill-opacity="0.501961" points="170,153 81,116 133,110" />
<polygon fill="#000000" fill-opacity="0.501961" points="12,142 57,158 49,127" />
<polygon fill="#757989" fill-opacity="0.501961" points="98,143 61,99 50,159" />
<polygon fill="#51423d" fill-opacity="0.501961" points="31,126 -13,152 34,20" />
<polygon fill="#424140" fill-opacity="0.501961" points="253,9 113,-3 191,40" />
<polygon fill="#4c504d" fill-opacity="0.501961" points="226,38 228,89 201,58" />
<polygon fill="#5a473d" fill-opacity="0.501961" points="192,89 195,159 105,159" />
<polygon fill="#c4c2ae" fill-opacity="0.501961" points="222,4 236,10 238,4" />
<polygon fill="#40321f" fill-opacity="0.501961" points="214,105 253,97 271,52" />
<polygon fill="#080000" fill-opacity="0.501961" points="215,81 201,67 206,94" />
<polygon fill="#0f0300" fill-opacity="0.501961" points="210,1 195,-16 174,-1" />
<polygon fill="#87a6aa" fill-opacity="0.501961" points="164,76 161,44 67,38" />
<polygon fill="#eee8c9" fill-opacity="0.501961" points="271,18 244,7 271,10" />
<polygon fill="#322d2d" fill-opacity="0.501961" points="255,9 271,63 219,9" />
<polygon fill="#714f3d" fill-opacity="0.501961" points="230,114 198,108 226,101" />
<polygon fill="#827b82" fill-opacity="0.501961" points="77,112 156,128 56,143" />
<polygon fill="#8f6f60" fill-opacity="0.501961" points="187,113 219,124 200,123" />
<polygon fill="#30261d" fill-opacity="0.501961" points="251,-8 257,7 200,1" />
<polygon fill="#2d2422" fill-opacity="0.501961" points="204,38 212,62 156,38" />
<polygon fill="#000000" fill-opacity="0.501961" points="226,99 256,104 238,123" />
<polygon fill="#92b0b7" fill-opacity="0.501961" points="143,42 72,36 72,91" />
</g>
</svg>