<svg xmlns="http://www.w3.org/2000/svg" version="1.1" width="1024" height="572">
<rect x="0" y="0" width="1024" height="572" fill="#413f3c" />
<g transform="scale(4.000000) translate(0.5 0.5)">
<polygon fill="#db0000" fill-opacity="0.501961" points="51,59 104,30 24,30" />
<polygon fill="#9ea0a3" fill-opacity="0.501961" points="183,15 243,25 271,1" />
<polygon fill="#a7a9ac" fill-opacity="0.501961" points="210,78 159,75 192,68" />
<polygon fill="#6a6c6f" fill-opacity="0.501961" points="71,134 151,112 -5,113" />
<polygon fill="#898b8e" fill-opacity="0.501961" points="129,72 80,85 48,71" />
<polygon fill="#e60000" fill-opacity="0.501961" points="47,31 46,51 17,53" />
<polygon fill="#218e25" fill-opacity="0.501961" points="154,44 209,61 96,58" />
<polygon fill="#888a8d" fill-opacity="0.501961" points="178,68 155,80 118,73" />
<polygon fill="#004c49" fill-opacity="0.501961" points="53,60 65,28 50,39" />
<polygon fill="#2e3032" fill-opacity="0.501961" points="32,122 122,77 -16,82" />
<polygon fill="#303336" fill-opacity="0.501961" points="70,25 168,57 221,-16" />
<polygon fill="#20a622" fill-opacity="0.501961" points="127,54 70,49 86,63" />
<polygon fill="#b9b9ba" fill-opacity="0.501961" points="204,6 199,23 229,14" />
<polygon fill="#1e1f21" fill-opacity="0.501961" points="220,-4 210,-16 214,24" />
<polygon fill="#7d7f81" fill-opacity="0.501961" points="19,133 -16,123 42,120" />
<polygon fill="#1d1e20" fill-opacity="0.501961" points="241,-16 271,11 271,92" />
<polygon fill="#141414" fill-opacity="0.501961" points="238,17 232,-2 232,26" />
<polygon fill="#313336" fill-opacity="0.501961" points="271,59 225,158 195,19" />
<polygon fill="#7c7e81" fill-opacity="0.501961" points="187,114 148,112 155,121" />
<polygon fill="#313335" fill-opacity="0.501961" points="124,158 268,119 117,116" />
<polygon fill="#ce0000" fill-opacity="0.501961" points="92,30 58,55 64,30" />
<polygon fill="#7a7a7b" fill-opacity="0.501961" points="60,129 121,131 94,119" />
<polygon fill="#2f3536" fill-opacity="0.501961" points="0,83 33,49 89,61" />
<polygon fill="#ffffff" fill-opacity="0.501961" points="217,16 221,9 219,22" />
<polygon fill="#e6e7e7" fill-opacity="0.501961" points="243,23 244,4 249,21" />
<polygon fill="#9f9f9f" fill-opacity="0.501961" points="54,78 51,69 80,74" />
<polygon fill="#9c9d9f" fill-opacity="0.501961" points="135,78 115,77 127,72" />
<polygon fill="#363637" fill-opacity="0.501961" points="259,12 267,53 176,74" />
<polygon fill="#dd0000" fill-opacity="0.501961" points="82,32 81,46 91,37" />
<polygon fill="#373738" fill-opacity="0.501961" points="107,-16 241,53 87,49" />
<polygon fill="#e10000" fill-opacity="0.501961" points="34,46 38,30 29,29" />
<polygon fill="#898a8a" fill-opacity="0.501961" points="192,77 176,68 163,78" />
<polygon fill="#303234" fill-opacity="0.501961" points="189,112 130,113 151,72" />
<polygon fill="#303336" fill-opacity="0.501961" points="-3,-4 98,-13 42,35" />
<polygon fill="#30302f" fill-opacity="0.501961" points="113,123 79,124 96,129" />
<polygon fill="#292828" fill-opacity="0.501961" points="53,110 18,118 67,120" />
<polygon fill="#fcfcfc" fill-opacity="0.501961" points="222,24 232,20 231,16" />
<polygon fill="#2d2e31" fill-opacity="0.501961" points="61,158 58,124 25,125" />
<polygon fill="#363d37" fill-opacity="0.501961" points="193,39 177,76 246,14" />
<polygon fill="#353637" fill-opacity="0.501961" points="94,113 203,79 -16,77" />
<polygon fill="#302e32" fill-opacity="0.501961" points="209,71 173,58 164,70" />
<polygon fill="#353638" fill-opacity="0.501961" points="202,6 247,-16 258,7" />
<polygon fill="#cd0000" fill-opacity="0.501961" points="23,55 56,32 33,38" />
<polygon fill="#1f3d38" fill-opacity="0.501961" points="70,39 80,32 79,39" />
<polygon fill="#919395" fill-opacity="0.501961" points="184,118 183,113 197,114" />
<polygon fill="#299f28" fill-opacity="0.501961" points="158,53 201,51 182,59" />
<polygon fill="#303133" fill-opacity="0.501961" points="-7,145 28,23 -5,-6" />
<polygon fill="#393839" fill-opacity="0.501961" points="156,51 202,13 23,10" />
<polygon fill="#dc0000" fill-opacity="0.501961" points="41,53 52,52 44,40" />
<polygon fill="#9a9a9a" fill-opacity="0.501961" points="123,117 112,114 130,113" />
</g>
</svg>