<svg xmlns="http://www.w3.org/2000/svg" version="1.1" width="1024" height="576">
<rect x="0" y="0" width="1024" height="576" fill="#84827b" />
<g transform="scale(4.000000) translate(0.5 0.5)">
<polygon fill="#2b1b03" fill-opacity="0.501961" points="162,159 173,41 271,129" />
<polygon fill="#c0c6cd" fill-opacity="0.501961" points="179,159 21,119 57,-16" />
<polygon fill="#000000" fill-opacity="0.501961" points="98,159 17,159 70,121" />
<polygon fill="#000000" fill-opacity="0.501961" points="271,89 217,115 271,126" />
<polygon fill="#756f64" fill-opacity="0.501961" points="271,6 -3,34 233,99" />
<polygon fill="#d6e2f0" fill-opacity="0.501961" points="60,93 133,122 98,159" />
<polygon fill="#000303" fill-opacity="0.501961" points="189,86 148,159 201,152" />
<polygon fill="#aeb6c7" fill-opacity="0.501961" points="20,24 -16,-16 157,0" />
<polygon fill="#cbd5db" fill-opacity="0.501961" points="32,106 25,147 87,111" />
<polygon fill="#87806b" fill-opacity="0.501961" points="174,58 239,57 212,159" />
<polygon fill="#fffff5" fill-opacity="0.501961" points="137,-2 168,-13 217,5" />
<polygon fill="#97999a" fill-opacity="0.501961" points="110,-16 176,159 32,23" />
<polygon fill="#5c5547" fill-opacity="0.501961" points="271,7 126,42 259,61" />
<polygon fill="#000000" fill-opacity="0.501961" points="85,134 60,159 57,127" />
<polygon fill="#67440e" fill-opacity="0.501961" points="271,108 217,137 248,159" />
<polygon fill="#1c0e07" fill-opacity="0.501961" points="169,89 211,104 161,112" />
<polygon fill="#000000" fill-opacity="0.501961" points="271,104 264,123 215,100" />
<polygon fill="#b8bbb9" fill-opacity="0.501961" points="128,145 128,66 24,110" />
<polygon fill="#eae8d4" fill-opacity="0.501961" points="214,3 231,12 254,8" />
<polygon fill="#6b665b" fill-opacity="0.501961" points="271,12 166,79 167,3" />
<polygon fill="#574a2a" fill-opacity="0.501961" points="234,0 186,1 181,-14" />
<polygon fill="#91908e" fill-opacity="0.501961" points="-16,148 158,-16 31,37" />
<polygon fill="#88816e" fill-opacity="0.501961" points="194,159 219,37 240,74" />
<polygon fill="#8e8369" fill-opacity="0.501961" points="253,104 161,69 259,52" />
<polygon fill="#938d7e" fill-opacity="0.501961" points="162,72 165,159 107,76" />
<polygon fill="#d3e1f2" fill-opacity="0.501961" points="111,128 85,159 90,114" />
<polygon fill="#b2b9c6" fill-opacity="0.501961" points="69,-16 -1,0 37,20" />
<polygon fill="#090b0b" fill-opacity="0.501961" points="43,150 51,130 84,138" />
<polygon fill="#675f5b" fill-opacity="0.501961" points="11,65 3,23 27,21" />
<polygon fill="#582d1e" fill-opacity="0.501961" points="170,101 172,73 198,99" />
<polygon fill="#b9b9b3" fill-opacity="0.501961" points="55,115 37,150 30,77" />
<polygon fill="#a9a7a0" fill-opacity="0.501961" points="134,129 62,73 146,67" />
<polygon fill="#bdcbd8" fill-opacity="0.501961" points="35,128 69,109 118,121" />
<polygon fill="#6d4e24" fill-opacity="0.501961" points="271,131 236,159 220,116" />
<polygon fill="#787a7a" fill-opacity="0.501961" points="169,159 165,119 133,137" />
<polygon fill="#7f8182" fill-opacity="0.501961" points="151,-16 107,3 147,89" />
<polygon fill="#67593e" fill-opacity="0.501961" points="271,-9 271,8 217,2" />
<polygon fill="#020500" fill-opacity="0.501961" points="226,99 227,119 271,114" />
<polygon fill="#8f8677" fill-opacity="0.501961" points="151,100 123,75 176,87" />
<polygon fill="#13140a" fill-opacity="0.501961" points="169,112 199,159 190,91" />
<polygon fill="#938b7b" fill-opacity="0.501961" points="27,146 33,54 -16,86" />
<polygon fill="#000700" fill-opacity="0.501961" points="192,92 201,106 188,107" />
<polygon fill="#655e4b" fill-opacity="0.501961" points="231,71 246,10 225,7" />
<polygon fill="#a1987a" fill-opacity="0.501961" points="252,99 222,100 252,64" />
<polygon fill="#726c61" fill-opacity="0.501961" points="235,59 194,79 110,33" />
<polygon fill="#fffffd" fill-opacity="0.501961" points="141,-16 191,2 153,-1" />
<polygon fill="#4b5058" fill-opacity="0.501961" points="55,138 42,138 64,123" />
<polygon fill="#989eaa" fill-opacity="0.501961" points="37,24 65,-16 114,26" />
<polygon fill="#61674d" fill-opacity="0.501961" points="247,159 271,113 247,120" />
<polygon fill="#aaa8a2" fill-opacity="0.501961" points="123,67 26,124 27,79" />
</g>
</svg>