<svg xmlns="http://www.w3.org/2000/svg" version="1.1" width="1024" height="576">
<rect x="0" y="0" width="1024" height="576" fill="#747672" />
<g transform="scale(4.000000) translate(0.5 0.5)">
<polygon fill="#bddae8" fill-opacity="0.501961" points="154,133 174,31 -12,159" />
<polygon fill="#342611" fill-opacity="0.501961" points="271,153 251,-16 155,156" />
<polygon fill="#58564d" fill-opacity="0.501961" points="271,10 146,2 208,154" />
<polygon fill="#000000" fill-opacity="0.501961" points="227,96 271,112 224,124" />
<polygon fill="#c1ffff" fill-opacity="0.501961" points="167,40 134,112 164,111" />
<polygon fill="#abaeb4" fill-opacity="0.501961" points="118,159 78,36 22,123" />
<polygon fill="#000000" fill-opacity="0.501961" points="165,129 190,159 203,118" />
<polygon fill="#7c746c" fill-opacity="0.501961" points="236,73 98,138 135,159" />
<polygon fill="#717d7e" fill-opacity="0.501961" points="174,-16 80,97 126,107" />
<polygon fill="#6c5848" fill-opacity="0.501961" points="-16,129 16,6 34,159" />
<polygon fill="#def4f2" fill-opacity="0.501961" points="137,111 69,113 71,95" />
<polygon fill="#fffffa" fill-opacity="0.501961" points="160,-12 201,4 116,-5" />
<polygon fill="#7c7664" fill-opacity="0.501961" points="271,89 215,49 175,120" />
<polygon fill="#504e47" fill-opacity="0.501961" points="166,36 178,101 257,1" />
<polygon fill="#f0edd1" fill-opacity="0.501961" points="271,15 230,6 271,4" />
<polygon fill="#ddffff" fill-opacity="0.501961" points="168,98 170,120 175,92" />
<polygon fill="#8fe0f7" fill-opacity="0.501961" points="163,93 132,44 168,45" />
<polygon fill="#311800" fill-opacity="0.501961" points="271,78 202,158 270,140" />
<polygon fill="#939098" fill-opacity="0.501961" points="109,-6 60,29 -16,1" />
<polygon fill="#8a9090" fill-opacity="0.501961" points="81,107 68,18 127,108" />
<polygon fill="#000000" fill-opacity="0.501961" points="174,119 199,130 168,159" />
<polygon fill="#5b4c46" fill-opacity="0.501961" points="12,64 -5,14 52,32" />
<polygon fill="#91877e" fill-opacity="0.501961" points="21,79 31,159 75,53" />
<polygon fill="#6d6863" fill-opacity="0.501961" points="120,112 177,158 163,113" />
<polygon fill="#410c00" fill-opacity="0.501961" points="177,85 191,94 187,70" />
<polygon fill="#000000" fill-opacity="0.501961" points="232,122 271,105 224,100" />
<polygon fill="#000000" fill-opacity="0.501961" points="95,149 161,159 122,139" />
<polygon fill="#e2ffff" fill-opacity="0.501961" points="112,111 160,97 162,110" />
<polygon fill="#5f686e" fill-opacity="0.501961" points="143,-5 185,42 85,47" />
<polygon fill="#617e87" fill-opacity="0.501961" points="109,79 137,36 151,76" />
<polygon fill="#3f341c" fill-opacity="0.501961" points="249,-16 190,-1 263,8" />
<polygon fill="#6d6e6d" fill-opacity="0.501961" points="215,159 225,61 199,129" />
<polygon fill="#656257" fill-opacity="0.501961" points="183,71 161,115 170,36" />
<polygon fill="#f4f0d9" fill-opacity="0.501961" points="203,5 218,5 200,0" />
<polygon fill="#a1ccd7" fill-opacity="0.501961" points="88,105 70,113 71,68" />
<polygon fill="#75b2cf" fill-opacity="0.501961" points="155,86 147,49 137,108" />
<polygon fill="#c4feff" fill-opacity="0.501961" points="167,72 152,77 158,111" />
<polygon fill="#786f6a" fill-opacity="0.501961" points="69,84 -16,73 72,17" />
<polygon fill="#8b827e" fill-opacity="0.501961" points="171,77 176,118 193,123" />
<polygon fill="#6a4217" fill-opacity="0.501961" points="221,118 246,122 245,159" />
<polygon fill="#000000" fill-opacity="0.501961" points="201,159 172,125 195,123" />
<polygon fill="#3b2b0b" fill-opacity="0.501961" points="214,2 193,-16 176,-1" />
<polygon fill="#b1b5c4" fill-opacity="0.501961" points="67,125 141,128 57,148" />
<polygon fill="#fdffff" fill-opacity="0.501961" points="116,109 85,115 78,106" />
<polygon fill="#3e3826" fill-opacity="0.501961" points="227,55 269,52 229,33" />
<polygon fill="#525451" fill-opacity="0.501961" points="223,31 229,56 153,42" />
<polygon fill="#9a9896" fill-opacity="0.501961" points="27,151 72,112 33,80" />
<polygon fill="#bbc1b7" fill-opacity="0.501961" points="103,85 94,75 134,82" />
<polygon fill="#493217" fill-opacity="0.501961" points="201,121 191,122 198,97" />
<polygon fill="#7d6f52" fill-opacity="0.501961" points="250,103 271,65 237,63" />
</g>
</svg>