<svg xmlns="http://www.w3.org/2000/svg" version="1.1" width="1024" height="576">
<rect x="0" y="0" width="1024" height="576" fill="#73796d" />
<g transform="scale(4.000000) translate(0.5 0.5)">
<polygon fill="#000000" fill-opacity="0.501961" points="271,151 179,37 145,159" />
<polygon fill="#afc3c0" fill-opacity="0.501961" points="224,8 25,123 -16,-16" />
<polygon fill="#000000" fill-opacity="0.501961" points="258,159 170,142 164,63" />
<polygon fill="#171e20" fill-opacity="0.501961" points="-4,124 162,100 76,138" />
<polygon fill="#8b6e36" fill-opacity="0.501961" points="222,-16 204,116 271,130" />
<polygon fill="#9bada9" fill-opacity="0.501961" points="14,-16 70,113 184,54" />
<polygon fill="#080000" fill-opacity="0.501961" points="197,39 159,79 204,159" />
<polygon fill="#686b63" fill-opacity="0.501961" points="172,97 162,149 6,138" />
<polygon fill="#34352f" fill-opacity="0.501961" points="53,-2 153,19 86,-16" />
<polygon fill="#bcae92" fill-opacity="0.501961" points="211,82 176,-16 216,19" />
<polygon fill="#4f412d" fill-opacity="0.501961" points="270,-5 209,-5 198,21" />
<polygon fill="#c0d9dd" fill-opacity="0.501961" points="35,48 72,68 122,52" />
<polygon fill="#7e918d" fill-opacity="0.501961" points="171,93 -6,39 -12,127" />
<polygon fill="#060000" fill-opacity="0.501961" points="4,121 34,125 4,132" />
<polygon fill="#a5a795" fill-opacity="0.501961" points="202,-7 205,29 85,-1" />
<polygon fill="#050000" fill-opacity="0.501961" points="197,97 209,72 184,47" />
<polygon fill="#908c7c" fill-opacity="0.501961" points="173,-6 116,41 186,63" />
<polygon fill="#000000" fill-opacity="0.501961" points="46,118 69,122 92,111" />
<polygon fill="#080e07" fill-opacity="0.501961" points="140,100 110,109 152,109" />
<polygon fill="#000000" fill-opacity="0.501961" points="180,109 162,73 172,61" />
<polygon fill="#d7b247" fill-opacity="0.501961" points="180,77 189,75 188,83" />
<polygon fill="#937b48" fill-opacity="0.501961" points="230,4 259,94 266,0" />
<polygon fill="#663d2c" fill-opacity="0.501961" points="184,33 202,43 173,60" />
<polygon fill="#030808" fill-opacity="0.501961" points="124,104 98,118 76,115" />
<polygon fill="#656d68" fill-opacity="0.501961" points="20,129 75,159 175,101" />
<polygon fill="#6a613e" fill-opacity="0.501961" points="271,88 271,142 199,84" />
<polygon fill="#c0cdbd" fill-opacity="0.501961" points="175,18 199,34 190,-16" />
<polygon fill="#191906" fill-opacity="0.501961" points="263,159 220,123 264,129" />
<polygon fill="#756a58" fill-opacity="0.501961" points="170,87 127,102 169,100" />
<polygon fill="#000000" fill-opacity="0.501961" points="46,124 27,123 62,115" />
<polygon fill="#040709" fill-opacity="0.501961" points="150,159 204,150 204,66" />
<polygon fill="#d3a890" fill-opacity="0.501961" points="208,102 210,58 215,80" />
<polygon fill="#8c9388" fill-opacity="0.501961" points="158,86 94,85 186,-16" />
<polygon fill="#8da29f" fill-opacity="0.501961" points="111,57 59,72 17,56" />
<polygon fill="#848671" fill-opacity="0.501961" points="198,62 196,-16 216,20" />
<polygon fill="#632e1e" fill-opacity="0.501961" points="205,91 189,78 177,95" />
<polygon fill="#000000" fill-opacity="0.501961" points="173,119 184,62 169,66" />
<polygon fill="#2f342f" fill-opacity="0.501961" points="159,19 141,13 140,18" />
<polygon fill="#a2aea3" fill-opacity="0.501961" points="-15,27 143,17 54,-1" />
<polygon fill="#222a28" fill-opacity="0.501961" points="114,10 81,4 97,1" />
<polygon fill="#8c918a" fill-opacity="0.501961" points="111,-16 161,17 59,-4" />
<polygon fill="#bee3eb" fill-opacity="0.501961" points="63,67 71,61 89,66" />
<polygon fill="#7e8f8a" fill-opacity="0.501961" points="114,62 147,100 -16,126" />
<polygon fill="#69513d" fill-opacity="0.501961" points="170,94 165,143 153,99" />
<polygon fill="#959a8c" fill-opacity="0.501961" points="177,19 178,51 122,17" />
<polygon fill="#333937" fill-opacity="0.501961" points="243,-1 214,8 213,-16" />
<polygon fill="#000000" fill-opacity="0.501961" points="210,81 205,65 170,67" />
<polygon fill="#000303" fill-opacity="0.501961" points="85,3 47,-13 63,0" />
<polygon fill="#000303" fill-opacity="0.501961" points="161,86 162,72 206,64" />
<polygon fill="#e6f8fa" fill-opacity="0.501961" points="53,51 85,52 70,57" />
</g>
</svg>