<svg xmlns="http://www.w3.org/2000/svg" version="1.1" width="1024" height="576">
<rect x="0" y="0" width="1024" height="576" fill="#526a87" />
<g transform="scale(4.000000) translate(0.5 0.5)">
<polygon fill="#0091ff" fill-opacity="0.501961" points="48,42 176,19 157,125" />
<polygon fill="#b0b1b3" fill-opacity="0.501961" points="49,-16 104,159 25,126" />
<polygon fill="#472200" fill-opacity="0.501961" points="271,137 239,-16 220,153" />
<polygon fill="#040232" fill-opacity="0.501961" points="145,156 97,50 98,151" />
<polygon fill="#0293ff" fill-opacity="0.501961" points="76,23 69,98 174,56" />
<polygon fill="#000000" fill-opacity="0.501961" points="-11,142 27,122 54,159" />
<polygon fill="#0093ff" fill-opacity="0.501961" points="165,27 110,115 166,110" />
<polygon fill="#55464e" fill-opacity="0.501961" points="162,2 178,159 271,14" />
<polygon fill="#836e6f" fill-opacity="0.501961" points="4,142 -16,-7 97,-1" />
<polygon fill="#755f43" fill-opacity="0.501961" points="268,126 125,159 118,109" />
<polygon fill="#080100" fill-opacity="0.501961" points="269,107 249,154 222,97" />
<polygon fill="#9fb2c5" fill-opacity="0.501961" points="93,147 28,159 100,56" />
<polygon fill="#02084c" fill-opacity="0.501961" points="123,159 92,94 108,60" />
<polygon fill="#00a4ff" fill-opacity="0.501961" points="71,124 95,45 71,30" />
<polygon fill="#7c7768" fill-opacity="0.501961" points="247,56 136,127 267,92" />
<polygon fill="#008eff" fill-opacity="0.501961" points="169,44 129,114 95,37" />
<polygon fill="#7784ac" fill-opacity="0.501961" points="118,40 108,-16 -16,5" />
<polygon fill="#364884" fill-opacity="0.501961" points="266,24 122,6 152,43" />
<polygon fill="#e0d4b1" fill-opacity="0.501961" points="233,11 257,9 214,1" />
<polygon fill="#fffbd2" fill-opacity="0.501961" points="212,4 179,-8 144,-1" />
<polygon fill="#886565" fill-opacity="0.501961" points="105,81 102,52 79,97" />
<polygon fill="#69adf4" fill-opacity="0.501961" points="66,115 77,101 117,115" />
<polygon fill="#010000" fill-opacity="0.501961" points="45,146 -11,142 26,130" />
<polygon fill="#422b0c" fill-opacity="0.501961" points="239,-16 179,-1 270,7" />
<polygon fill="#050800" fill-opacity="0.501961" points="105,138 147,159 105,117" />
<polygon fill="#5a5660" fill-opacity="0.501961" points="-1,17 70,34 10,72" />
<polygon fill="#7a788d" fill-opacity="0.501961" points="197,126 227,47 222,159" />
<polygon fill="#0094ff" fill-opacity="0.501961" points="113,100 164,112 165,54" />
<polygon fill="#000000" fill-opacity="0.501961" points="225,100 237,121 271,105" />
<polygon fill="#aeaca9" fill-opacity="0.501961" points="51,159 96,117 28,107" />
<polygon fill="#65431b" fill-opacity="0.501961" points="213,159 231,118 271,132" />
<polygon fill="#2d5aaf" fill-opacity="0.501961" points="53,31 137,17 172,43" />
<polygon fill="#41434c" fill-opacity="0.501961" points="271,9 271,89 199,10" />
<polygon fill="#817b81" fill-opacity="0.501961" points="69,-16 71,96 10,133" />
<polygon fill="#000875" fill-opacity="0.501961" points="100,68 117,89 116,110" />
<polygon fill="#5b7fc7" fill-opacity="0.501961" points="121,108 125,132 111,114" />
<polygon fill="#30b3ff" fill-opacity="0.501961" points="71,77 75,113 89,113" />
<polygon fill="#6c6057" fill-opacity="0.501961" points="13,39 4,132 29,125" />
<polygon fill="#008cff" fill-opacity="0.501961" points="125,89 156,42 90,38" />
<polygon fill="#0099ff" fill-opacity="0.501961" points="72,84 93,72 75,32" />
<polygon fill="#8e8d91" fill-opacity="0.501961" points="93,-16 -16,-11 32,28" />
<polygon fill="#414051" fill-opacity="0.501961" points="222,34 166,40 189,72" />
<polygon fill="#695571" fill-opacity="0.501961" points="91,64 116,71 96,55" />
<polygon fill="#90818e" fill-opacity="0.501961" points="101,111 83,79 91,122" />
<polygon fill="#6d6a66" fill-opacity="0.501961" points="167,55 217,118 167,130" />
<polygon fill="#a09e95" fill-opacity="0.501961" points="27,125 72,116 34,82" />
<polygon fill="#001c82" fill-opacity="0.501961" points="101,110 114,69 94,93" />
<polygon fill="#606c97" fill-opacity="0.501961" points="150,-16 153,22 38,29" />
<polygon fill="#000207" fill-opacity="0.501961" points="225,119 271,116 227,99" />
<polygon fill="#fffff1" fill-opacity="0.501961" points="245,10 255,8 235,6" />
</g>
</svg>