<svg xmlns="http://www.w3.org/2000/svg" version="1.1" width="1024" height="576">
<rect x="0" y="0" width="1024" height="576" fill="#696667" />
<g transform="scale(4.000000) translate(0.5 0.5)">
<polygon fill="#caccd3" fill-opacity="0.501961" points="254,50 43,-2 -4,87" />
<polygon fill="#000000" fill-opacity="0.501961" points="79,159 77,63 271,135" />
<polygon fill="#080301" fill-opacity="0.501961" points="140,159 271,139 209,58" />
<polygon fill="#e0e4ff" fill-opacity="0.501961" points="67,15 106,50 44,68" />
<polygon fill="#d3d1ca" fill-opacity="0.501961" points="116,49 147,-16 146,101" />
<polygon fill="#9e9f94" fill-opacity="0.501961" points="239,-15 166,76 249,74" />
<polygon fill="#13141b" fill-opacity="0.501961" points="94,137 -16,112 57,96" />
<polygon fill="#e0b974" fill-opacity="0.501961" points="-12,121 6,159 113,141" />
<polygon fill="#191312" fill-opacity="0.501961" points="80,134 254,159 268,79" />
<polygon fill="#474550" fill-opacity="0.501961" points="133,19 60,3 97,33" />
<polygon fill="#adaab4" fill-opacity="0.501961" points="129,40 102,96 87,29" />
<polygon fill="#999487" fill-opacity="0.501961" points="177,123 175,61 192,109" />
<polygon fill="#a7a9b1" fill-opacity="0.501961" points="76,60 -10,5 65,107" />
<polygon fill="#5d6279" fill-opacity="0.501961" points="20,-16 60,20 35,45" />
<polygon fill="#c7cbc2" fill-opacity="0.501961" points="215,36 246,-1 190,36" />
<polygon fill="#30354b" fill-opacity="0.501961" points="179,110 165,57 138,104" />
<polygon fill="#737475" fill-opacity="0.501961" points="-16,82 56,120 13,22" />
<polygon fill="#343032" fill-opacity="0.501961" points="186,92 215,45 222,137" />
<polygon fill="#98816e" fill-opacity="0.501961" points="206,113 225,103 197,133" />
<polygon fill="#140d12" fill-opacity="0.501961" points="94,105 123,61 139,104" />
<polygon fill="#181524" fill-opacity="0.501961" points="84,55 102,88 67,94" />
<polygon fill="#a29e9c" fill-opacity="0.501961" points="160,72 109,27 138,91" />
<polygon fill="#f3ffff" fill-opacity="0.501961" points="34,-13 72,28 49,-16" />
<polygon fill="#fcfcf0" fill-opacity="0.501961" points="137,16 153,42 127,33" />
<polygon fill="#040209" fill-opacity="0.501961" points="162,107 82,159 228,152" />
<polygon fill="#69695e" fill-opacity="0.501961" points="139,16 258,-16 178,48" />
<polygon fill="#afabae" fill-opacity="0.501961" points="111,82 87,70 126,26" />
<polygon fill="#818180" fill-opacity="0.501961" points="208,38 246,-1 228,96" />
<polygon fill="#ffffff" fill-opacity="0.501961" points="60,32 74,49 76,23" />
<polygon fill="#201e1d" fill-opacity="0.501961" points="-14,109 47,130 13,99" />
<polygon fill="#151214" fill-opacity="0.501961" points="49,130 124,109 135,143" />
<polygon fill="#50515d" fill-opacity="0.501961" points="56,89 2,101 73,115" />
<polygon fill="#362f1b" fill-opacity="0.501961" points="230,107 251,159 270,56" />
<polygon fill="#9d9da0" fill-opacity="0.501961" points="73,84 27,91 17,16" />
<polygon fill="#727ca1" fill-opacity="0.501961" points="37,-16 78,-16 81,29" />
<polygon fill="#040002" fill-opacity="0.501961" points="216,64 213,76 201,59" />
<polygon fill="#7f716b" fill-opacity="0.501961" points="80,114 50,108 91,105" />
<polygon fill="#a8a69c" fill-opacity="0.501961" points="139,105 164,36 145,21" />
<polygon fill="#2f2212" fill-opacity="0.501961" points="170,62 158,60 162,84" />
<polygon fill="#989686" fill-opacity="0.501961" points="160,38 209,50 181,96" />
<polygon fill="#adaec2" fill-opacity="0.501961" points="90,43 47,66 66,93" />
<polygon fill="#ece9d5" fill-opacity="0.501961" points="194,31 207,45 208,29" />
<polygon fill="#52515a" fill-opacity="0.501961" points="26,28 50,27 38,9" />
<polygon fill="#888fa9" fill-opacity="0.501961" points="31,13 -4,-16 60,-16" />
<polygon fill="#8d8d8c" fill-opacity="0.501961" points="236,10 249,87 217,77" />
<polygon fill="#c5a67f" fill-opacity="0.501961" points="49,139 100,137 137,159" />
<polygon fill="#3d3f50" fill-opacity="0.501961" points="138,92 175,80 166,120" />
<polygon fill="#ffffff" fill-opacity="0.501961" points="150,-16 137,18 139,-3" />
<polygon fill="#8f8f8c" fill-opacity="0.501961" points="-16,108 19,42 -16,43" />
<polygon fill="#0a0c16" fill-opacity="0.501961" points="102,80 86,105 72,84" />
</g>
</svg>