<svg xmlns="http://www.w3.org/2000/svg" version="1.1" width="1024" height="576">
<rect x="0" y="0" width="1024" height="576" fill="#63605c" />
<g transform="scale(4.000000) translate(0.5 0.5)">
<polygon fill="#cdfaff" fill-opacity="0.501961" points="99,14 203,106 83,121" />
<polygon fill="#381e0e" fill-opacity="0.501961" points="215,-16 165,159 271,139" />
<polygon fill="#b0dde2" fill-opacity="0.501961" points="183,45 181,119 131,40" />
<polygon fill="#38271e" fill-opacity="0.501961" points="88,40 -16,-16 35,159" />
<polygon fill="#39312a" fill-opacity="0.501961" points="147,1 262,155 269,7" />
<polygon fill="#525255" fill-opacity="0.501961" points="224,2 113,42 -16,-3" />
<polygon fill="#8e767b" fill-opacity="0.501961" points="78,115 79,159 196,112" />
<polygon fill="#b3d0d7" fill-opacity="0.501961" points="88,38 91,114 181,109" />
<polygon fill="#000000" fill-opacity="0.501961" points="271,83 202,159 271,137" />
<polygon fill="#785849" fill-opacity="0.501961" points="251,63 135,142 243,125" />
<polygon fill="#a45d39" fill-opacity="0.501961" points="12,159 -16,51 20,56" />
<polygon fill="#fffef6" fill-opacity="0.501961" points="211,2 133,-2 160,-16" />
<polygon fill="#251b12" fill-opacity="0.501961" points="240,14 253,104 271,-1" />
<polygon fill="#383227" fill-opacity="0.501961" points="60,159 13,135 34,73" />
<polygon fill="#441300" fill-opacity="0.501961" points="-10,80 -5,20 21,38" />
<polygon fill="#96b4b9" fill-opacity="0.501961" points="89,36 181,44 174,113" />
<polygon fill="#5c6264" fill-opacity="0.501961" points="108,39 15,-16 229,36" />
<polygon fill="#816c60" fill-opacity="0.501961" points="249,105 229,108 245,39" />
<polygon fill="#070704" fill-opacity="0.501961" points="271,122 219,125 227,155" />
<polygon fill="#5a5153" fill-opacity="0.501961" points="87,130 89,14 46,101" />
<polygon fill="#060000" fill-opacity="0.501961" points="194,-1 271,-16 250,3" />
<polygon fill="#000000" fill-opacity="0.501961" points="223,86 232,90 233,72" />
<polygon fill="#acad9e" fill-opacity="0.501961" points="230,2 203,0 216,7" />
<polygon fill="#3b352f" fill-opacity="0.501961" points="271,0 185,42 182,99" />
<polygon fill="#090000" fill-opacity="0.501961" points="106,147 141,138 178,159" />
<polygon fill="#81777d" fill-opacity="0.501961" points="100,159 78,113 150,115" />
<polygon fill="#633722" fill-opacity="0.501961" points="9,158 -16,143 1,63" />
<polygon fill="#bcd2d5" fill-opacity="0.501961" points="97,112 188,113 109,90" />
<polygon fill="#ab8e84" fill-opacity="0.501961" points="216,121 223,107 235,124" />
<polygon fill="#240000" fill-opacity="0.501961" points="222,98 212,110 232,108" />
<polygon fill="#302a25" fill-opacity="0.501961" points="33,72 61,34 26,24" />
<polygon fill="#90abaf" fill-opacity="0.501961" points="187,77 89,35 89,74" />
<polygon fill="#a49288" fill-opacity="0.501961" points="218,89 233,94 214,99" />
<polygon fill="#997662" fill-opacity="0.501961" points="12,113 6,52 22,71" />
<polygon fill="#42403c" fill-opacity="0.501961" points="179,1 236,58 265,7" />
<polygon fill="#5b493b" fill-opacity="0.501961" points="240,46 183,159 182,86" />
<polygon fill="#190000" fill-opacity="0.501961" points="256,110 270,128 221,106" />
<polygon fill="#677b7a" fill-opacity="0.501961" points="94,35 138,22 183,38" />
<polygon fill="#54514e" fill-opacity="0.501961" points="37,106 16,105 20,32" />
<polygon fill="#6f645b" fill-opacity="0.501961" points="246,82 227,68 240,51" />
<polygon fill="#6e5649" fill-opacity="0.501961" points="213,114 158,159 151,113" />
<polygon fill="#cac6b0" fill-opacity="0.501961" points="239,1 253,4 238,5" />
<polygon fill="#575554" fill-opacity="0.501961" points="-16,26 193,27 133,-16" />
<polygon fill="#100000" fill-opacity="0.501961" points="220,69 232,74 235,89" />
<polygon fill="#201509" fill-opacity="0.501961" points="271,4 234,-12 191,-1" />
<polygon fill="#98afb0" fill-opacity="0.501961" points="126,39 181,112 183,75" />
<polygon fill="#765a4a" fill-opacity="0.501961" points="205,130 219,111 220,155" />
<polygon fill="#686a76" fill-opacity="0.501961" points="106,153 61,159 82,100" />
<polygon fill="#867778" fill-opacity="0.501961" points="180,128 94,141 91,114" />
<polygon fill="#bebfae" fill-opacity="0.501961" points="217,1 217,5 231,3" />
</g>
</svg>