<svg xmlns="http://www.w3.org/2000/svg" version="1.1" width="1024" height="576">
<rect x="0" y="0" width="1024" height="576" fill="#51667b" />
<g transform="scale(4.000000) translate(0.5 0.5)">
<polygon fill="#26bbff" fill-opacity="0.501961" points="73,159 181,71 71,8" />
<polygon fill="#3a1c00" fill-opacity="0.501961" points="245,-16 271,147 146,141" />
<polygon fill="#c8a690" fill-opacity="0.501961" points="180,125 27,99 42,159" />
<polygon fill="#169eff" fill-opacity="0.501961" points="60,111 165,112 143,17" />
<polygon fill="#deffff" fill-opacity="0.501961" points="123,58 83,72 122,94" />
<polygon fill="#2b2027" fill-opacity="0.501961" points="182,159 164,39 219,6" />
<polygon fill="#090000" fill-opacity="0.501961" points="42,154 24,118 -16,153" />
<polygon fill="#000000" fill-opacity="0.501961" points="271,106 223,97 238,159" />
<polygon fill="#968e93" fill-opacity="0.501961" points="226,159 201,144 224,54" />
<polygon fill="#006aff" fill-opacity="0.501961" points="157,112 94,36 169,43" />
<polygon fill="#7c635a" fill-opacity="0.501961" points="-16,-4 107,-16 9,140" />
<polygon fill="#007eff" fill-opacity="0.501961" points="73,28 70,104 108,40" />
<polygon fill="#000000" fill-opacity="0.501961" points="189,72 174,159 206,142" />
<polygon fill="#978f85" fill-opacity="0.501961" points="70,54 70,159 25,87" />
<polygon fill="#595c64" fill-opacity="0.501961" points="226,42 226,100 152,55" />
<polygon fill="#767a95" fill-opacity="0.501961" points="121,-16 108,39 -16,7" />
<polygon fill="#8be2fc" fill-opacity="0.501961" points="87,115 87,60 123,64" />
<polygon fill="#0085ff" fill-opacity="0.501961" points="107,109 141,69 169,111" />
<polygon fill="#b9a780" fill-opacity="0.501961" points="196,-16 140,-2 264,10" />
<polygon fill="#4b474d" fill-opacity="0.501961" points="160,101 271,3 182,-16" />
<polygon fill="#7f7061" fill-opacity="0.501961" points="177,150 94,159 174,101" />
<polygon fill="#415182" fill-opacity="0.501961" points="76,33 188,45 185,8" />
<polygon fill="#53463f" fill-opacity="0.501961" points="7,22 39,31 8,146" />
<polygon fill="#f2ffa1" fill-opacity="0.501961" points="148,55 155,63 159,51" />
<polygon fill="#010000" fill-opacity="0.501961" points="-13,140 25,128 43,156" />
<polygon fill="#19a3ff" fill-opacity="0.501961" points="71,113 117,111 114,81" />
<polygon fill="#eff6de" fill-opacity="0.501961" points="229,5 252,7 241,10" />
<polygon fill="#ccf4e3" fill-opacity="0.501961" points="123,84 124,66 96,56" />
<polygon fill="#deddce" fill-opacity="0.501961" points="145,-2 215,5 160,-16" />
<polygon fill="#007bff" fill-opacity="0.501961" points="74,38 129,39 73,71" />
<polygon fill="#231a07" fill-opacity="0.501961" points="177,-1 224,-16 271,7" />
<polygon fill="#989291" fill-opacity="0.501961" points="38,114 32,159 163,112" />
<polygon fill="#343127" fill-opacity="0.501961" points="224,42 271,-5 271,85" />
<polygon fill="#001096" fill-opacity="0.501961" points="182,125 173,118 179,97" />
<polygon fill="#6d605a" fill-opacity="0.501961" points="29,127 38,20 -16,137" />
<polygon fill="#000000" fill-opacity="0.501961" points="233,125 271,105 226,100" />
<polygon fill="#492905" fill-opacity="0.501961" points="230,120 271,138 217,151" />
<polygon fill="#62636f" fill-opacity="0.501961" points="196,96 224,120 226,40" />
<polygon fill="#6cceef" fill-opacity="0.501961" points="121,95 90,96 119,72" />
<polygon fill="#658dbd" fill-opacity="0.501961" points="128,61 90,53 83,65" />
<polygon fill="#43434e" fill-opacity="0.501961" points="188,4 162,86 271,12" />
<polygon fill="#000000" fill-opacity="0.501961" points="202,143 172,150 203,111" />
<polygon fill="#007fff" fill-opacity="0.501961" points="153,111 168,58 113,110" />
<polygon fill="#9a897a" fill-opacity="0.501961" points="214,159 202,121 223,112" />
<polygon fill="#1d9bff" fill-opacity="0.501961" points="75,54 107,113 70,113" />
<polygon fill="#0071fd" fill-opacity="0.501961" points="101,40 147,40 155,90" />
<polygon fill="#506fa0" fill-opacity="0.501961" points="48,29 176,38 121,14" />
<polygon fill="#dbe0d1" fill-opacity="0.501961" points="208,3 231,5 221,8" />
<polygon fill="#4c4c60" fill-opacity="0.501961" points="243,9 195,40 123,-2" />
<polygon fill="#60562c" fill-opacity="0.501961" points="271,99 244,49 224,100" />
</g>
</svg>