<svg xmlns="http://www.w3.org/2000/svg" version="1.1" width="1024" height="576">
<rect x="0" y="0" width="1024" height="576" fill="#63605c" />
<g transform="scale(4.000000) translate(0.5 0.5)">
<polygon fill="#c6ecf7" fill-opacity="0.501961" points="92,21 201,78 84,159" />
<polygon fill="#2f1809" fill-opacity="0.501961" points="256,159 174,80 256,-16" />
<polygon fill="#39271e" fill-opacity="0.501961" points="35,159 89,42 -16,-16" />
<polygon fill="#b4d7da" fill-opacity="0.501961" points="180,32 82,112 185,113" />
<polygon fill="#71524e" fill-opacity="0.501961" points="41,112 114,159 249,116" />
<polygon fill="#070000" fill-opacity="0.501961" points="177,147 271,104 259,142" />
<polygon fill="#353531" fill-opacity="0.501961" points="259,6 142,0 210,82" />
<polygon fill="#4f5456" fill-opacity="0.501961" points="140,-16 178,43 -16,26" />
<polygon fill="#94b7ba" fill-opacity="0.501961" points="176,41 83,41 182,111" />
<polygon fill="#a75d39" fill-opacity="0.501961" points="14,159 17,49 -16,81" />
<polygon fill="#694c3a" fill-opacity="0.501961" points="185,68 179,159 254,100" />
<polygon fill="#887267" fill-opacity="0.501961" points="245,35 248,105 228,107" />
<polygon fill="#393023" fill-opacity="0.501961" points="44,104 59,152 -11,155" />
<polygon fill="#cfcfc1" fill-opacity="0.501961" points="178,-16 232,4 161,-1" />
<polygon fill="#481400" fill-opacity="0.501961" points="-14,89 -1,20 20,37" />
<polygon fill="#000000" fill-opacity="0.501961" points="205,1 268,0 218,-15" />
<polygon fill="#b6d1d6" fill-opacity="0.501961" points="100,56 149,113 88,97" />
<polygon fill="#a98b80" fill-opacity="0.501961" points="227,109 213,120 236,125" />
<polygon fill="#ebefd5" fill-opacity="0.501961" points="270,1 271,9 242,4" />
<polygon fill="#0c0902" fill-opacity="0.501961" points="249,159 213,156 271,74" />
<polygon fill="#80747c" fill-opacity="0.501961" points="84,112 172,125 66,159" />
<polygon fill="#95b2b4" fill-opacity="0.501961" points="184,44 180,111 105,38" />
<polygon fill="#5b4636" fill-opacity="0.501961" points="220,149 218,114 102,150" />
<polygon fill="#616e6d" fill-opacity="0.501961" points="176,45 185,18 81,24" />
<polygon fill="#585457" fill-opacity="0.501961" points="43,122 95,3 72,159" />
<polygon fill="#342e26" fill-opacity="0.501961" points="55,33 29,18 30,128" />
<polygon fill="#b7cdd0" fill-opacity="0.501961" points="183,113 166,88 88,112" />
<polygon fill="#a9978f" fill-opacity="0.501961" points="233,93 213,100 216,90" />
<polygon fill="#020000" fill-opacity="0.501961" points="235,72 233,91 222,72" />
<polygon fill="#261e15" fill-opacity="0.501961" points="271,96 248,12 246,100" />
<polygon fill="#372e27" fill-opacity="0.501961" points="230,34 185,42 183,98" />
<polygon fill="#9b7863" fill-opacity="0.501961" points="12,109 22,65 6,54" />
<polygon fill="#8b695d" fill-opacity="0.501961" points="237,114 212,122 249,123" />
<polygon fill="#613824" fill-opacity="0.501961" points="-1,51 10,159 -16,134" />
<polygon fill="#000000" fill-opacity="0.501961" points="177,153 101,151 136,139" />
<polygon fill="#280800" fill-opacity="0.501961" points="270,136 270,118 214,101" />
<polygon fill="#686872" fill-opacity="0.501961" points="66,153 103,159 82,85" />
<polygon fill="#95b4ba" fill-opacity="0.501961" points="90,82 89,39 164,43" />
<polygon fill="#ffffff" fill-opacity="0.501961" points="149,-1 200,-16 179,0" />
<polygon fill="#000000" fill-opacity="0.501961" points="190,0 180,-16 240,-2" />
<polygon fill="#433f3a" fill-opacity="0.501961" points="197,2 235,67 264,7" />
<polygon fill="#5a5d5d" fill-opacity="0.501961" points="70,32 171,-16 121,39" />
<polygon fill="#0e0300" fill-opacity="0.501961" points="250,4 271,3 265,-16" />
<polygon fill="#8ca4a6" fill-opacity="0.501961" points="119,73 180,74 184,43" />
<polygon fill="#675d53" fill-opacity="0.501961" points="241,38 227,69 249,81" />
<polygon fill="#2b2d28" fill-opacity="0.501961" points="193,38 164,39 178,43" />
<polygon fill="#58544f" fill-opacity="0.501961" points="21,42 31,91 14,139" />
<polygon fill="#645043" fill-opacity="0.501961" points="222,159 180,87 214,97" />
<polygon fill="#887168" fill-opacity="0.501961" points="185,130 145,112 116,137" />
<polygon fill="#281d15" fill-opacity="0.501961" points="271,1 227,2 218,-16" />
</g>
</svg>