<svg xmlns="http://www.w3.org/2000/svg" version="1.1" width="1024" height="576">
<rect x="0" y="0" width="1024" height="576" fill="#84827b" />
<g transform="scale(4.000000) translate(0.5 0.5)">
<polygon fill="#040000" fill-opacity="0.501961" points="164,87 170,159 271,107" />
<polygon fill="#c3c9d0" fill-opacity="0.501961" points="70,-16 167,159 22,114" />
<polygon fill="#000000" fill-opacity="0.501961" points="69,122 101,159 38,144" />
<polygon fill="#64563d" fill-opacity="0.501961" points="121,38 250,159 271,6" />
<polygon fill="#d6e4f2" fill-opacity="0.501961" points="61,94 96,156 131,123" />
<polygon fill="#9498a2" fill-opacity="0.501961" points="85,85 147,-12 -15,-12" />
<polygon fill="#221000" fill-opacity="0.501961" points="270,110 226,97 220,159" />
<polygon fill="#908974" fill-opacity="0.501961" points="201,159 195,65 249,60" />
<polygon fill="#cdd6dc" fill-opacity="0.501961" points="26,116 29,147 98,96" />
<polygon fill="#1b0d01" fill-opacity="0.501961" points="175,69 165,135 210,159" />
<polygon fill="#b8c0cf" fill-opacity="0.501961" points="-16,0 53,28 65,-9" />
<polygon fill="#92918a" fill-opacity="0.501961" points="166,58 42,12 161,156" />
<polygon fill="#000000" fill-opacity="0.501961" points="30,159 87,138 64,127" />
<polygon fill="#b1a98b" fill-opacity="0.501961" points="271,98 250,59 229,100" />
<polygon fill="#70501f" fill-opacity="0.501961" points="234,118 187,159 271,138" />
<polygon fill="#fffee7" fill-opacity="0.501961" points="164,-16 138,-2 222,6" />
<polygon fill="#000000" fill-opacity="0.501961" points="228,117 271,118 224,97" />
<polygon fill="#878787" fill-opacity="0.501961" points="162,33 28,22 17,88" />
<polygon fill="#000000" fill-opacity="0.501961" points="192,90 173,109 200,104" />
<polygon fill="#fef9e0" fill-opacity="0.501961" points="252,7 219,3 233,10" />
<polygon fill="#625e55" fill-opacity="0.501961" points="243,9 271,67 150,5" />
<polygon fill="#b7b9b7" fill-opacity="0.501961" points="133,133 139,62 18,119" />
<polygon fill="#635a55" fill-opacity="0.501961" points="32,29 6,21 10,58" />
<polygon fill="#d2e1f2" fill-opacity="0.501961" points="83,120 92,159 108,120" />
<polygon fill="#7f4f41" fill-opacity="0.501961" points="171,109 169,53 184,92" />
<polygon fill="#2e1f14" fill-opacity="0.501961" points="212,85 191,105 202,108" />
<polygon fill="#9f9789" fill-opacity="0.501961" points="25,148 44,40 12,88" />
<polygon fill="#402d05" fill-opacity="0.501961" points="203,1 164,-2 232,-16" />
<polygon fill="#030200" fill-opacity="0.501961" points="78,129 13,155 88,159" />
<polygon fill="#64573b" fill-opacity="0.501961" points="271,9 245,-13 183,-2" />
<polygon fill="#999385" fill-opacity="0.501961" points="173,87 102,72 134,120" />
<polygon fill="#716c64" fill-opacity="0.501961" points="213,5 227,120 125,35" />
<polygon fill="#857f70" fill-opacity="0.501961" points="212,128 192,104 208,159" />
<polygon fill="#c2d0dd" fill-opacity="0.501961" points="29,130 108,118 74,108" />
<polygon fill="#73572b" fill-opacity="0.501961" points="243,159 271,124 223,119" />
<polygon fill="#ffffff" fill-opacity="0.501961" points="241,5 247,9 255,9" />
<polygon fill="#8c846e" fill-opacity="0.501961" points="215,54 203,117 271,64" />
<polygon fill="#bdbfbd" fill-opacity="0.501961" points="31,101 37,159 51,113" />
<polygon fill="#737778" fill-opacity="0.501961" points="166,159 165,131 128,133" />
<polygon fill="#0c0a03" fill-opacity="0.501961" points="242,109 271,86 271,132" />
<polygon fill="#989da7" fill-opacity="0.501961" points="112,-13 25,22 103,30" />
<polygon fill="#7e7c74" fill-opacity="0.501961" points="203,78 109,28 128,68" />
<polygon fill="#111508" fill-opacity="0.501961" points="198,149 191,98 172,108" />
<polygon fill="#aeada8" fill-opacity="0.501961" points="28,121 148,69 72,70" />
<polygon fill="#60594f" fill-opacity="0.501961" points="228,30 157,39 185,59" />
<polygon fill="#2a2f36" fill-opacity="0.501961" points="46,136 59,159 56,127" />
<polygon fill="#ffffff" fill-opacity="0.501961" points="154,-1 162,-8 189,2" />
<polygon fill="#6b6a5f" fill-opacity="0.501961" points="222,87 191,156 224,159" />
<polygon fill="#9b9791" fill-opacity="0.501961" points="4,46 -16,119 7,149" />
<polygon fill="#837c71" fill-opacity="0.501961" points="150,74 167,114 159,156" />
</g>
</svg>