<svg xmlns="http://www.w3.org/2000/svg" version="1.1" width="1024" height="576">
<rect x="0" y="0" width="1024" height="576" fill="#5c5c5a" />
<g transform="scale(4.000000) translate(0.5 0.5)">
<polygon fill="#c8f1fd" fill-opacity="0.501961" points="76,21 183,72 65,159" />
<polygon fill="#1b0600" fill-opacity="0.501961" points="244,-16 134,159 271,140" />
<polygon fill="#aed3d6" fill-opacity="0.501961" points="162,33 60,105 166,114" />
<polygon fill="#120000" fill-opacity="0.501961" points="7,159 6,86 64,152" />
<polygon fill="#29231f" fill-opacity="0.501961" points="168,1 271,13 166,100" />
<polygon fill="#7b6261" fill-opacity="0.501961" points="149,158 -4,117 208,109" />
<polygon fill="#45312c" fill-opacity="0.501961" points="2,159 66,32 -16,7" />
<polygon fill="#000000" fill-opacity="0.501961" points="190,136 271,79 250,159" />
<polygon fill="#8eb1b7" fill-opacity="0.501961" points="166,42 66,35 164,115" />
<polygon fill="#4f5658" fill-opacity="0.501961" points="186,45 55,31 156,-16" />
<polygon fill="#816555" fill-opacity="0.501961" points="166,104 228,113 227,82" />
<polygon fill="#000000" fill-opacity="0.501961" points="-16,157 42,124 69,159" />
<polygon fill="#c2c2aa" fill-opacity="0.501961" points="257,10 240,2 222,5" />
<polygon fill="#7b747e" fill-opacity="0.501961" points="20,114 139,112 101,159" />
<polygon fill="#080000" fill-opacity="0.501961" points="176,-2 240,-16 267,8" />
<polygon fill="#ffffff" fill-opacity="0.501961" points="180,2 176,-10 138,-3" />
<polygon fill="#2e221c" fill-opacity="0.501961" points="166,77 218,95 191,24" />
<polygon fill="#bdd2d6" fill-opacity="0.501961" points="164,91 86,110 151,112" />
<polygon fill="#a7c3c8" fill-opacity="0.501961" points="72,38 71,99 162,111" />
<polygon fill="#515351" fill-opacity="0.501961" points="204,55 226,21 226,95" />
<polygon fill="#726768" fill-opacity="0.501961" points="70,77 69,143 17,107" />
<polygon fill="#231b0e" fill-opacity="0.501961" points="228,159 271,-4 227,49" />
<polygon fill="#666b6f" fill-opacity="0.501961" points="173,37 77,34 15,-12" />
<polygon fill="#7d5f51" fill-opacity="0.501961" points="224,118 226,129 194,120" />
<polygon fill="#5e4f44" fill-opacity="0.501961" points="129,156 202,101 195,62" />
<polygon fill="#000000" fill-opacity="0.501961" points="201,70 206,95 215,73" />
<polygon fill="#000000" fill-opacity="0.501961" points="188,159 223,159 218,104" />
<polygon fill="#342523" fill-opacity="0.501961" points="32,29 4,24 11,71" />
<polygon fill="#87a7aa" fill-opacity="0.501961" points="164,95 167,51 110,36" />
<polygon fill="#7f7b86" fill-opacity="0.501961" points="136,127 59,113 49,159" />
<polygon fill="#d1cbbe" fill-opacity="0.501961" points="142,-3 170,-11 205,4" />
<polygon fill="#897269" fill-opacity="0.501961" points="217,99 192,86 198,111" />
<polygon fill="#000000" fill-opacity="0.501961" points="271,104 224,100 240,123" />
<polygon fill="#373636" fill-opacity="0.501961" points="149,41 246,9 271,42" />
<polygon fill="#554a45" fill-opacity="0.501961" points="0,159 78,26 -16,94" />
<polygon fill="#000000" fill-opacity="0.501961" points="-1,159 30,125 57,136" />
<polygon fill="#464442" fill-opacity="0.501961" points="190,40 245,9 107,-5" />
<polygon fill="#130200" fill-opacity="0.501961" points="182,0 197,-11 192,1" />
<polygon fill="#795945" fill-opacity="0.501961" points="223,147 220,117 227,131" />
<polygon fill="#4e3f33" fill-opacity="0.501961" points="167,45 169,159 193,111" />
<polygon fill="#99786d" fill-opacity="0.501961" points="211,120 208,126 191,117" />
<polygon fill="#b8ced4" fill-opacity="0.501961" points="70,113 107,111 99,82" />
<polygon fill="#70635e" fill-opacity="0.501961" points="70,106 29,127 32,73" />
<polygon fill="#000000" fill-opacity="0.501961" points="201,159 194,122 217,132" />
<polygon fill="#433625" fill-opacity="0.501961" points="254,101 223,98 249,57" />
<polygon fill="#362e29" fill-opacity="0.501961" points="166,40 193,93 214,37" />
<polygon fill="#665143" fill-opacity="0.501961" points="143,111 161,135 195,111" />
<polygon fill="#687879" fill-opacity="0.501961" points="84,19 144,34 100,37" />
<polygon fill="#180100" fill-opacity="0.501961" points="199,109 221,117 202,118" />
<polygon fill="#8caab0" fill-opacity="0.501961" points="70,75 75,34 159,43" />
</g>
</svg>