<svg xmlns="http://www.w3.org/2000/svg" version="1.1" width="1024" height="576">
<rect x="0" y="0" width="1024" height="576" fill="#3b3a3a" />
<g transform="scale(4.000000) translate(0.5 0.5)">
<polygon fill="#686969" fill-opacity="0.501961" points="102,72 166,71 105,107" />
<polygon fill="#c10000" fill-opacity="0.501961" points="87,50 99,67 116,48" />
<polygon fill="#949595" fill-opacity="0.501961" points="174,46 169,34 151,43" />
<polygon fill="#2b2c2c" fill-opacity="0.501961" points="107,95 151,89 97,81" />
<polygon fill="#278029" fill-opacity="0.501961" points="122,68 144,59 96,62" />
<polygon fill="#606060" fill-opacity="0.501961" points="89,108 81,93 144,93" />
<polygon fill="#909191" fill-opacity="0.501961" points="95,70 96,75 112,74" />
<polygon fill="#aaabab" fill-opacity="0.501961" points="158,46 153,46 159,35" />
<polygon fill="#298f28" fill-opacity="0.501961" points="151,65 155,57 127,64" />
<polygon fill="#353739" fill-opacity="0.501961" points="111,60 72,90 80,66" />
<polygon fill="#383838" fill-opacity="0.501961" points="101,111 6,-16 90,47" />
<polygon fill="#6c6c6c" fill-opacity="0.501961" points="111,104 97,98 125,102" />
<polygon fill="#8e1513" fill-opacity="0.501961" points="93,64 124,52 85,56" />
<polygon fill="#6c6c6c" fill-opacity="0.501961" points="127,82 156,84 150,71" />
<polygon fill="#626262" fill-opacity="0.501961" points="155,95 124,93 137,99" />
<polygon fill="#373838" fill-opacity="0.501961" points="24,101 -16,159 192,107" />
<polygon fill="#989898" fill-opacity="0.501961" points="120,83 129,79 108,79" />
<polygon fill="#363637" fill-opacity="0.501961" points="150,36 107,47 169,67" />
<polygon fill="#373838" fill-opacity="0.501961" points="271,30 155,37 55,-16" />
<polygon fill="#272727" fill-opacity="0.501961" points="151,79 162,76 142,75" />
<polygon fill="#e30000" fill-opacity="0.501961" points="93,49 92,59 99,58" />
<polygon fill="#373838" fill-opacity="0.501961" points="-16,120 -16,18 110,66" />
<polygon fill="#323333" fill-opacity="0.501961" points="127,83 168,84 128,94" />
<polygon fill="#2e2e2e" fill-opacity="0.501961" points="134,79 143,74 119,76" />
<polygon fill="#737373" fill-opacity="0.501961" points="140,73 122,68 101,75" />
<polygon fill="#797979" fill-opacity="0.501961" points="100,98 84,98 81,105" />
<polygon fill="#343336" fill-opacity="0.501961" points="91,61 108,72 135,69" />
<polygon fill="#3c3f3e" fill-opacity="0.501961" points="80,90 98,74 105,47" />
<polygon fill="#929292" fill-opacity="0.501961" points="145,75 140,71 157,73" />
<polygon fill="#383939" fill-opacity="0.501961" points="92,56 41,83 76,-16" />
<polygon fill="#a7a7a7" fill-opacity="0.501961" points="170,41 171,37 161,38" />
<polygon fill="#343535" fill-opacity="0.501961" points="159,68 171,79 167,35" />
<polygon fill="#363636" fill-opacity="0.501961" points="138,94 88,93 129,82" />
<polygon fill="#383939" fill-opacity="0.501961" points="111,-16 163,59 116,62" />
<polygon fill="#373838" fill-opacity="0.501961" points="271,96 123,96 144,159" />
<polygon fill="#383838" fill-opacity="0.501961" points="166,78 155,57 161,36" />
<polygon fill="#373838" fill-opacity="0.501961" points="271,-9 154,55 251,159" />
<polygon fill="#be0200" fill-opacity="0.501961" points="109,49 114,54 96,62" />
<polygon fill="#737373" fill-opacity="0.501961" points="98,82 116,83 113,78" />
<polygon fill="#a40e0a" fill-opacity="0.501961" points="85,58 93,59 90,63" />
<polygon fill="#2b9728" fill-opacity="0.501961" points="130,60 111,63 129,65" />
<polygon fill="#3c3e3d" fill-opacity="0.501961" points="133,71 160,72 145,65" />
<polygon fill="#383736" fill-opacity="0.501961" points="102,64 108,25 97,26" />
<polygon fill="#383a39" fill-opacity="0.501961" points="91,54 77,22 69,98" />
<polygon fill="#252525" fill-opacity="0.501961" points="138,78 142,74 150,79" />
<polygon fill="#383838" fill-opacity="0.501961" points="147,159 117,105 55,103" />
<polygon fill="#393939" fill-opacity="0.501961" points="258,75 228,20 170,39" />
<polygon fill="#393939" fill-opacity="0.501961" points="83,48 140,-16 156,50" />
<polygon fill="#393939" fill-opacity="0.501961" points="123,61 99,8 177,60" />
<polygon fill="#484848" fill-opacity="0.501961" points="99,100 109,96 120,101" />
</g>
</svg>