<svg xmlns="http://www.w3.org/2000/svg" version="1.1" width="1024" height="576">
<rect x="0" y="0" width="1024" height="576" fill="#73796d" />
<g transform="scale(4.000000) translate(0.5 0.5)">
<polygon fill="#000000" fill-opacity="0.501961" points="268,145 146,159 179,38" />
<polygon fill="#afc4c0" fill-opacity="0.501961" points="-16,-16 25,123 224,8" />
<polygon fill="#181e20" fill-opacity="0.501961" points="75,139 -5,126 162,98" />
<polygon fill="#000000" fill-opacity="0.501961" points="157,75 205,159 197,42" />
<polygon fill="#8e7038" fill-opacity="0.501961" points="271,132 215,-16 207,114" />
<polygon fill="#000100" fill-opacity="0.501961" points="271,139 171,102 164,159" />
<polygon fill="#9bada9" fill-opacity="0.501961" points="84,112 -3,-16 186,53" />
<polygon fill="#34342f" fill-opacity="0.501961" points="87,-16 154,18 26,-7" />
<polygon fill="#bbaf95" fill-opacity="0.501961" points="175,-16 215,18 212,84" />
<polygon fill="#6b6f67" fill-opacity="0.501961" points="171,102 159,159 2,133" />
<polygon fill="#524430" fill-opacity="0.501961" points="271,-6 199,22 205,-2" />
<polygon fill="#c1dadf" fill-opacity="0.501961" points="33,48 120,53 75,68" />
<polygon fill="#7d908c" fill-opacity="0.501961" points="2,123 -16,43 168,93" />
<polygon fill="#928d7a" fill-opacity="0.501961" points="171,-8 124,51 185,62" />
<polygon fill="#a6a798" fill-opacity="0.501961" points="142,14 60,-9 227,-10" />
<polygon fill="#000000" fill-opacity="0.501961" points="208,85 206,66 163,62" />
<polygon fill="#000000" fill-opacity="0.501961" points="71,119 15,128 46,114" />
<polygon fill="#86958e" fill-opacity="0.501961" points="38,56 166,58 154,98" />
<polygon fill="#8c794a" fill-opacity="0.501961" points="271,-4 271,117 211,13" />
<polygon fill="#000001" fill-opacity="0.501961" points="207,114 169,62 174,159" />
<polygon fill="#a8823f" fill-opacity="0.501961" points="185,94 190,72 182,77" />
<polygon fill="#131a19" fill-opacity="0.501961" points="55,115 133,104 89,123" />
<polygon fill="#5b3122" fill-opacity="0.501961" points="183,34 173,63 201,43" />
<polygon fill="#6a633f" fill-opacity="0.501961" points="257,130 201,85 271,81" />
<polygon fill="#c0c9b7" fill-opacity="0.501961" points="169,25 194,31 194,-15" />
<polygon fill="#626b68" fill-opacity="0.501961" points="20,128 158,105 91,159" />
<polygon fill="#000000" fill-opacity="0.501961" points="161,91 164,68 177,57" />
<polygon fill="#83948d" fill-opacity="0.501961" points="38,118 -16,35 124,104" />
<polygon fill="#e1b193" fill-opacity="0.501961" points="209,83 214,73 211,96" />
<polygon fill="#6c5742" fill-opacity="0.501961" points="148,105 170,85 166,135" />
<polygon fill="#000501" fill-opacity="0.501961" points="155,103 122,111 129,102" />
<polygon fill="#000000" fill-opacity="0.501961" points="195,61 202,89 206,66" />
<polygon fill="#8f9385" fill-opacity="0.501961" points="132,17 186,22 152,93" />
<polygon fill="#a2afa4" fill-opacity="0.501961" points="133,19 -4,-16 12,28" />
<polygon fill="#000000" fill-opacity="0.501961" points="1,131 11,122 33,125" />
<polygon fill="#675d3a" fill-opacity="0.501961" points="201,122 271,116 216,83" />
<polygon fill="#a8ac91" fill-opacity="0.501961" points="197,62 205,61 197,50" />
<polygon fill="#ecfdfe" fill-opacity="0.501961" points="55,47 53,55 83,55" />
<polygon fill="#accdd4" fill-opacity="0.501961" points="104,66 59,69 71,59" />
<polygon fill="#838772" fill-opacity="0.501961" points="213,18 191,-16 207,71" />
<polygon fill="#3d433e" fill-opacity="0.501961" points="139,21 117,10 154,16" />
<polygon fill="#48150f" fill-opacity="0.501961" points="200,93 169,97 193,78" />
<polygon fill="#020707" fill-opacity="0.501961" points="168,85 205,101 197,159" />
<polygon fill="#e6f7f9" fill-opacity="0.501961" points="89,51 112,54 90,57" />
<polygon fill="#262f2c" fill-opacity="0.501961" points="112,9 96,0 74,2" />
<polygon fill="#2c2f1e" fill-opacity="0.501961" points="271,135 186,159 213,118" />
<polygon fill="#91978c" fill-opacity="0.501961" points="115,16 179,50 173,18" />
<polygon fill="#8e958b" fill-opacity="0.501961" points="113,-16 57,-4 162,17" />
<polygon fill="#796e48" fill-opacity="0.501961" points="212,70 271,97 214,98" />
<polygon fill="#262d2f" fill-opacity="0.501961" points="208,-13 230,3 215,7" />
</g>
</svg>