<svg xmlns="http://www.w3.org/2000/svg" version="1.1" width="1024" height="572">
<rect x="0" y="0" width="1024" height="572" fill="#413f3c" />
<g transform="scale(4.000000) translate(0.5 0.5)">
<polygon fill="#da0000" fill-opacity="0.501961" points="51,59 103,30 23,31" />
<polygon fill="#aaacaf" fill-opacity="0.501961" points="189,14 249,27 248,4" />
<polygon fill="#787a7d" fill-opacity="0.501961" points="96,85 150,68 41,72" />
<polygon fill="#8b8d90" fill-opacity="0.501961" points="165,66 208,75 131,80" />
<polygon fill="#e10000" fill-opacity="0.501961" points="54,28 46,51 15,53" />
<polygon fill="#696b6e" fill-opacity="0.501961" points="66,112 49,143 166,114" />
<polygon fill="#228526" fill-opacity="0.501961" points="135,68 194,48 70,53" />
<polygon fill="#dcddde" fill-opacity="0.501961" points="197,21 211,7 208,22" />
<polygon fill="#0d413f" fill-opacity="0.501961" points="48,75 51,38 67,22" />
<polygon fill="#77797c" fill-opacity="0.501961" points="7,133 -5,110 49,122" />
<polygon fill="#303235" fill-opacity="0.501961" points="236,125 231,-16 271,109" />
<polygon fill="#2f3635" fill-opacity="0.501961" points="197,-7 207,62 92,32" />
<polygon fill="#2f3133" fill-opacity="0.501961" points="19,78 177,79 18,121" />
<polygon fill="#c50000" fill-opacity="0.501961" points="60,53 66,28 94,37" />
<polygon fill="#303134" fill-opacity="0.501961" points="112,117 130,158 271,120" />
<polygon fill="#333d35" fill-opacity="0.501961" points="115,69 260,17 242,72" />
<polygon fill="#29a627" fill-opacity="0.501961" points="140,53 169,62 202,52" />
<polygon fill="#2a2c2e" fill-opacity="0.501961" points="92,131 -16,132 66,158" />
<polygon fill="#a0a1a2" fill-opacity="0.501961" points="147,73 132,79 115,72" />
<polygon fill="#a5a5a7" fill-opacity="0.501961" points="202,70 182,76 206,78" />
<polygon fill="#b1b2b2" fill-opacity="0.501961" points="59,77 71,69 53,72" />
<polygon fill="#d8d9d9" fill-opacity="0.501961" points="223,6 216,17 221,24" />
<polygon fill="#249528" fill-opacity="0.501961" points="121,56 77,61 72,45" />
<polygon fill="#343438" fill-opacity="0.501961" points="171,52 93,-16 91,51" />
<polygon fill="#ffffff" fill-opacity="0.501961" points="202,12 204,14 205,8" />
<polygon fill="#d7d7d6" fill-opacity="0.501961" points="247,20 246,8 238,23" />
<polygon fill="#8d8e91" fill-opacity="0.501961" points="187,119 169,114 197,113" />
<polygon fill="#ffffff" fill-opacity="0.501961" points="229,13 232,17 230,21" />
<polygon fill="#303335" fill-opacity="0.501961" points="62,53 -8,54 -14,131" />
<polygon fill="#d40000" fill-opacity="0.501961" points="28,51 31,28 46,40" />
<polygon fill="#382438" fill-opacity="0.501961" points="165,59 92,59 138,72" />
<polygon fill="#6a6a6a" fill-opacity="0.501961" points="58,107 118,130 66,131" />
<polygon fill="#2b2c2e" fill-opacity="0.501961" points="216,7 207,32 218,32" />
<polygon fill="#303234" fill-opacity="0.501961" points="54,-2 1,-16 -13,86" />
<polygon fill="#303133" fill-opacity="0.501961" points="248,7 271,-16 189,5" />
<polygon fill="#030202" fill-opacity="0.501961" points="226,16 223,18 219,15" />
<polygon fill="#10100f" fill-opacity="0.501961" points="245,17 232,12 242,20" />
<polygon fill="#8e8e8e" fill-opacity="0.501961" points="121,71 99,79 73,71" />
<polygon fill="#323436" fill-opacity="0.501961" points="235,119 236,67 110,100" />
<polygon fill="#38393a" fill-opacity="0.501961" points="-16,97 38,46 64,103" />
<polygon fill="#d7d6d7" fill-opacity="0.501961" points="175,68 179,74 175,77" />
<polygon fill="#8a8a8b" fill-opacity="0.501961" points="167,114 134,113 153,119" />
<polygon fill="#373738" fill-opacity="0.501961" points="110,117 247,158 265,116" />
<polygon fill="#2c3031" fill-opacity="0.501961" points="55,52 69,71 120,70" />
<polygon fill="#14443f" fill-opacity="0.501961" points="80,38 71,40 75,33" />
<polygon fill="#1a1919" fill-opacity="0.501961" points="232,8 223,11 236,14" />
<polygon fill="#333436" fill-opacity="0.501961" points="39,34 185,-11 42,-16" />
<polygon fill="#2a2c3c" fill-opacity="0.501961" points="79,44 69,63 70,45" />
<polygon fill="#20403d" fill-opacity="0.501961" points="56,50 48,43 50,36" />
<polygon fill="#373439" fill-opacity="0.501961" points="200,70 205,19 238,79" />
</g>
</svg>